<svg xmlns:xlink="http://www.w3.org/1999/xlink" xmlns="http://www.w3.org/2000/svg" viewBox="0 0 800 800" width="null" height="null" preserveAspectRatio="xMidYMid meet" style="width: 100%; height: 100%; transform: translate3d(0px, 0px, 0px);"><defs><clipPath id="__lottie_element_3"><rect width="800" height="800" x="0" y="0"></rect></clipPath></defs><g clip-path="url(#__lottie_element_3)"><g style="display: none;" transform="matrix(1,0,0,1,37.5,-51)" opacity="1"><g opacity="1" transform="matrix(1,0,0,1,362.3739929199219,450.9230041503906)"><path stroke-linecap="butt" stroke-linejoin="miter" fill-opacity="0" stroke-miterlimit="4" stroke="#FF7E05" stroke-opacity="1" stroke-width="80.351px" d=" M161.4969940185547,250.04600524902344 C161.4969940185547,250.04600524902344 -130.6020050048828,250.04600524902344 -130.6020050048828,250.04600524902344 C-130.6020050048828,250.04600524902344 99.08200073242188,-16.062000274658203 99.08200073242188,-16.062000274658203 C117.97899627685547,-40.59400177001953 129.2169952392578,-71.3290023803711 129.2169952392578,-104.68900299072266 C129.2169952392578,-184.9669952392578 64.13999938964844,-250.04600524902344 -16.138999938964844,-250.04600524902344 C-96.41699981689453,-250.04600524902344 -161.49600219726562,-184.9669952392578 -161.49600219726562,-104.68900299072266"></path></g></g><g style="display: block;" transform="matrix(1,0,0,1,37.5,-51)" opacity="1"><g opacity="1" transform="matrix(1,0,0,1,362.3739929199219,450.9230041503906)"><path stroke-linecap="butt" stroke-linejoin="miter" fill-opacity="0" stroke-miterlimit="4" stroke="#1289FC" stroke-opacity="1" stroke-width="80.351px" d=" M161.4969940185547,250.04600524902344 C161.4969940185547,250.04600524902344 -130.6020050048828,250.04600524902344 -130.6020050048828,250.04600524902344 C-130.6020050048828,250.04600524902344 99.08200073242188,-16.062000274658203 99.08200073242188,-16.062000274658203 C117.97899627685547,-40.59400177001953 129.2169952392578,-71.3290023803711 129.2169952392578,-104.68900299072266 C129.2169952392578,-184.9669952392578 64.13999938964844,-250.04600524902344 -16.138999938964844,-250.04600524902344 C-96.41699981689453,-250.04600524902344 -161.49600219726562,-184.9669952392578 -161.49600219726562,-104.68900299072266"></path></g></g><g transform="matrix(0,0,0,1.1918799877166748,561.75,358.705322265625)" opacity="1" style="display: none;"><g opacity="1" transform="matrix(1,0,0,1,11,244)"><path fill="#99FF05" fill-opacity="1" d=" M75,-34 C75,-34 75,34 75,34 C75,34 -75,34 -75,34 C-75,34 -75,-34 -75,-34 C-75,-34 75,-34 75,-34z"></path></g></g><g style="display: none;" transform="matrix(0.24141347408294678,0,0,1.1918799877166748,537.4605102539062,358.705322265625)" opacity="1"><g opacity="1" transform="matrix(1,0,0,1,11,244)"><path fill="#FF05F3" fill-opacity="1" d=" M75,-34 C75,-34 75,34 75,34 C75,34 -75,34 -75,34 C-75,34 -75,-34 -75,-34 C-75,-34 75,-34 75,-34z"></path></g></g><g style="display: none;" transform="matrix(0,0,0,1.1918799877166748,561.75,358.705322265625)" opacity="1"><g opacity="1" transform="matrix(1,0,0,1,11,244)"><path fill="#1289FC" fill-opacity="1" d=" M75,-34 C75,-34 75,34 75,34 C75,34 -75,34 -75,34 C-75,34 -75,-34 -75,-34 C-75,-34 75,-34 75,-34z"></path></g></g><g transform="matrix(0.6774600148200989,0,0,0.6774600148200989,367.4022216796875,337.3250732421875)" opacity="0.00005600000000072214" style="display: none;"><g opacity="1" transform="matrix(1,0,0,1,24,-62)"><path stroke-linecap="round" stroke-linejoin="round" fill-opacity="0" stroke="#99FF05" stroke-opacity="1" stroke-width="10px" d="M0 0"></path></g></g><g style="display: none;" transform="matrix(1.3101099729537964,0,0,1.3101099729537964,351.9023132324219,375.9167175292969)" opacity="0.1998679999999986"><g opacity="1" transform="matrix(1,0,0,1,24,-62)"><path stroke-linecap="round" stroke-linejoin="round" fill-opacity="0" stroke="#99FF05" stroke-opacity="1" stroke-width="5px" d=" M-25.555999755859375,-143.76600646972656 C-17.256999969482422,-145.23399353027344 -8.717000007629395,-146 0,-146"></path></g></g><g style="display: none;" transform="matrix(1,0,0,1,400,400)" opacity="1"><g opacity="1" transform="matrix(1,0,0,1,0,0)"><path stroke-linecap="round" stroke-linejoin="round" fill-opacity="0" stroke="#FF05F3" stroke-opacity="1" stroke-width="7px" d="M0 0"></path></g></g></g></svg>