<svg xmlns:xlink="http://www.w3.org/1999/xlink" xmlns="http://www.w3.org/2000/svg" viewBox="0 0 800 800" width="null" height="null" preserveAspectRatio="xMidYMid meet" style="width: 100%; height: 100%; transform: translate3d(0px, 0px, 0px);"><defs><clipPath id="__lottie_element_50"><rect width="800" height="800" x="0" y="0"></rect></clipPath></defs><g clip-path="url(#__lottie_element_50)"><g style="display: block;" transform="matrix(1,0,0,1,146,-67.5)" opacity="1"><g opacity="1" transform="matrix(1,0,0,1,253.5780029296875,467.0140075683594)"><path stroke-linecap="butt" stroke-linejoin="miter" fill-opacity="0" stroke-miterlimit="10" stroke="#FF7E05" stroke-opacity="1" stroke-width="80.351px" d=" M-52.70000076293945,-266.1369934082031 C-52.70000076293945,-266.1369934082031 52.70100021362305,-266.1369934082031 52.70100021362305,-266.1369934082031 C52.70100021362305,-266.1369934082031 52.70100021362305,266.1369934082031 52.70100021362305,266.1369934082031"></path></g></g><g style="display: block;" transform="matrix(1,0,0,1,146,-67.5)" opacity="1"><g opacity="1" transform="matrix(1,0,0,1,253.5780029296875,467.0140075683594)"><path stroke-linecap="butt" stroke-linejoin="miter" fill-opacity="0" stroke-miterlimit="4" stroke="#1289FC" stroke-opacity="1" stroke-width="80.351px" d=" M-52.70000076293945,-266.1369934082031 C-52.70000076293945,-266.1369934082031 52.70100021362305,-266.1369934082031 52.70100021362305,-266.1369934082031 C52.70100021362305,-266.1369934082031 52.70100021362305,266.1369934082031 52.70100021362305,266.1369934082031"></path></g></g><g transform="matrix(1,0,0,1,414,400)" opacity="1" style="display: block;"><g opacity="1" transform="matrix(1,0,0,1,0,0)"><path stroke-linecap="round" stroke-linejoin="round" fill-opacity="0" stroke="#99FF05" stroke-opacity="1" stroke-width="8px" d="M0 0"></path></g></g><g transform="matrix(1,0,0,1,400,400)" opacity="1" style="display: block;"><g opacity="1" transform="matrix(1,0,0,1,0,0)"><path stroke-linecap="round" stroke-linejoin="round" fill-opacity="0" stroke="#99FF05" stroke-opacity="1" stroke-width="8px" d="M0 0"></path></g></g><g style="display: none;" transform="matrix(0.0004451778659131378,0,0,0.5,346.52069091796875,114.125)" opacity="1"><g opacity="1" transform="matrix(1,0,0,1,-5,-1)"><path fill="#FF05F3" fill-opacity="1" d=" M41,-41 C41,-41 41,41 41,41 C41,41 -41,41 -41,41 C-41,41 -41,-41 -41,-41 C-41,-41 41,-41 41,-41z"></path></g></g><g transform="matrix(0.07904817163944244,0,0,0.5,350.1757507324219,154.125)" opacity="1" style="display: none;"><g opacity="1" transform="matrix(1,0,0,1,-5,-1)"><path fill="#FF05F3" fill-opacity="1" d=" M41,-41 C41,-41 41,41 41,41 C41,41 -41,41 -41,41 C-41,41 -41,-41 -41,-41 C-41,-41 41,-41 41,-41z"></path></g></g></g></svg>