<svg xmlns:xlink="http://www.w3.org/1999/xlink" xmlns="http://www.w3.org/2000/svg" viewBox="0 0 800 800" width="null" height="null" preserveAspectRatio="xMidYMid meet" style="width: 100%; height: 100%; transform: translate3d(0px, 0px, 0px);"><defs><clipPath id="__lottie_element_28"><rect width="800" height="800" x="0" y="0"></rect></clipPath></defs><g clip-path="url(#__lottie_element_28)"><g style="display: none;" transform="matrix(1,0,0,1,56.5,-51)" opacity="1"><g opacity="1" transform="matrix(1,0,0,1,343.04901123046875,450.875)"><path stroke-linecap="butt" stroke-linejoin="miter" fill-opacity="0" stroke-miterlimit="10" stroke="#FF05F3" stroke-opacity="1" stroke-width="80.351px" d=" M-110.9489974975586,202.19000244140625 C-84.35299682617188,231.55299377441406 -45.922000885009766,249.9980010986328 -3.184000015258789,249.9980010986328 C77.09400177001953,249.9980010986328 142.17100524902344,184.9199981689453 142.17100524902344,104.64199829101562 C142.17100524902344,24.36400032043457 77.09400177001953,-40.71500015258789 -3.184000015258789,-40.71500015258789 C-3.184000015258789,-40.71500015258789 -36.6510009765625,-40.715999603271484 -36.6510009765625,-40.715999603271484 C-36.6510009765625,-40.715999603271484 80.91999816894531,-249.9980010986328 80.91999816894531,-249.9980010986328 C80.91999816894531,-249.9980010986328 -142.17100524902344,-249.9980010986328 -142.17100524902344,-249.9980010986328"></path></g></g><g style="display: block;" transform="matrix(1,0,0,1,56.5,-51)" opacity="1"><g opacity="1" transform="matrix(1,0,0,1,343.04901123046875,450.875)"><path stroke-linecap="butt" stroke-linejoin="miter" fill-opacity="0" stroke-miterlimit="10" stroke="#1289FC" stroke-opacity="1" stroke-width="80.351px" d=" M-110.9489974975586,202.19000244140625 C-84.35299682617188,231.55299377441406 -45.922000885009766,249.9980010986328 -3.184000015258789,249.9980010986328 C77.09400177001953,249.9980010986328 142.17100524902344,184.9199981689453 142.17100524902344,104.64199829101562 C142.17100524902344,24.36400032043457 77.09400177001953,-40.71500015258789 -3.184000015258789,-40.71500015258789 C-3.184000015258789,-40.71500015258789 -36.6510009765625,-40.715999603271484 -36.6510009765625,-40.715999603271484 C-36.6510009765625,-40.715999603271484 80.91999816894531,-249.9980010986328 80.91999816894531,-249.9980010986328 C80.91999816894531,-249.9980010986328 -142.17100524902344,-249.9980010986328 -142.17100524902344,-249.9980010986328"></path></g></g><g transform="matrix(0,0,0,0,396,504.5)" opacity="1" style="display: block;"><g opacity="1" transform="matrix(1,0,0,1,20,0)"><path fill="#FF7E05" fill-opacity="1" d=" M0,-96 C52.982398986816406,-96 96,-52.982398986816406 96,0 C96,52.982398986816406 52.982398986816406,96 0,96 C-52.982398986816406,96 -96,52.982398986816406 -96,0 C-96,-52.982398986816406 -52.982398986816406,-96 0,-96z"></path></g></g><g transform="matrix(1,0,0,1,456,302)" opacity="1" style="display: none;"><g opacity="1" transform="matrix(1,0,0,1,0,0)"><path stroke-linecap="round" stroke-linejoin="round" fill-opacity="0" stroke="#99FF05" stroke-opacity="1" stroke-width="10px" d="M0 0"></path></g></g><g style="display: none;" transform="matrix(1,0,0,1,502,390)" opacity="1"><g opacity="1" transform="matrix(1,0,0,1,0,0)"><path stroke-linecap="round" stroke-linejoin="round" fill-opacity="0" stroke="#99FF05" stroke-opacity="1" stroke-width="10px" d="M0 0"></path></g></g><g style="display: none;" transform="matrix(2.0671699047088623,0,0,2.0671699047088623,354.6566162109375,503.4664001464844)" opacity="1"><g opacity="1" transform="matrix(1,0,0,1,20,0)"><path stroke-linecap="round" stroke-linejoin="round" fill-opacity="0" stroke="#99FF05" stroke-opacity="1" stroke-width="5px" d="M0 0"></path></g></g></g></svg>